<?xml version="1.0" standalone="no"?>
<!DOCTYPE svg PUBLIC "-//W3C//DTD SVG 20010904//EN"
 "http://www.w3.org/TR/2001/REC-SVG-20010904/DTD/svg10.dtd">
<svg version="1.0" xmlns="http://www.w3.org/2000/svg"
 width="512.000000pt" height="512.000000pt" viewBox="0 0 512.000000 512.000000"
 preserveAspectRatio="xMidYMid meet">

<g transform="translate(0.000000,512.000000) scale(0.100000,-0.100000)"
fill="#000000" stroke="none">
<path d="M2300 5009 c-904 -79 -1714 -598 -2083 -1335 -357 -715 -263 -1541
249 -2185 l52 -65 -132 -661 -133 -661 621 310 621 311 135 -47 c1072 -367
2282 -64 2976 747 260 304 424 651 491 1042 23 139 23 471 0 610 -76 442 -266
814 -585 1147 -543 566 -1370 860 -2212 787z m635 -318 c589 -90 1090 -356
1437 -761 246 -288 387 -595 433 -947 117 -889 -505 -1745 -1485 -2046 -266
-82 -468 -111 -765 -111 -359 0 -609 47 -939 176 l-130 51 -404 -202 c-222
-111 -406 -200 -408 -198 -2 2 35 195 82 430 l85 426 -89 105 c-349 413 -500
888 -437 1369 63 482 314 903 740 1238 319 252 765 430 1195 478 52 6 109 13
125 15 77 11 437 -4 560 -23z"/>
<path d="M910 2770 l0 -450 450 0 450 0 0 450 0 450 -450 0 -450 0 0 -450z
m600 0 l0 -150 -150 0 -150 0 0 150 0 150 150 0 150 0 0 -150z"/>
<path d="M2110 2770 l0 -450 450 0 450 0 0 450 0 450 -450 0 -450 0 0 -450z
m600 0 l0 -150 -150 0 -150 0 0 150 0 150 150 0 150 0 0 -150z"/>
<path d="M3310 2770 l0 -450 450 0 450 0 0 450 0 450 -450 0 -450 0 0 -450z
m600 0 l0 -150 -150 0 -150 0 0 150 0 150 150 0 150 0 0 -150z"/>
</g>
</svg>
