<?xml version="1.0" standalone="no"?>
<!DOCTYPE svg PUBLIC "-//W3C//DTD SVG 20010904//EN"
 "http://www.w3.org/TR/2001/REC-SVG-20010904/DTD/svg10.dtd">
<svg version="1.0" xmlns="http://www.w3.org/2000/svg"
 width="512.000000pt" height="512.000000pt" viewBox="0 0 512.000000 512.000000"
 preserveAspectRatio="xMidYMid meet">

<g transform="translate(0.000000,512.000000) scale(0.100000,-0.100000)"
fill="#000000" stroke="none">
<path d="M4915 5115 c-5 -2 -1018 -333 -2250 -735 -1232 -402 -2316 -757
-2410 -787 -146 -48 -175 -61 -207 -92 -64 -64 -64 -158 0 -221 55 -53 1856
-1097 1908 -1105 26 -5 52 -2 75 8 26 11 272 188 529 381 17 13 -17 -35 -214
-299 -82 -110 -155 -216 -163 -235 -9 -20 -13 -50 -10 -72 7 -49 1054 -1856
1107 -1910 23 -23 50 -39 73 -43 59 -11 107 3 148 43 31 32 44 62 97 222 754
2299 1516 4644 1519 4675 6 60 -30 124 -87 153 -40 20 -87 27 -115 17z m-225
-432 c0 -9 -1331 -4085 -1339 -4100 -5 -10 -786 1315 -806 1369 -5 12 137 210
486 680 300 403 498 679 507 704 39 118 -84 241 -202 202 -25 -9 -300 -206
-704 -507 -587 -437 -666 -492 -685 -484 -20 9 -1367 791 -1375 798 -2 2 133
47 300 101 166 55 1088 356 2048 670 960 315 1751 572 1758 573 6 1 12 -2 12
-6z"/>
<path d="M765 2159 c-31 -17 -495 -481 -511 -511 -19 -37 -18 -106 4 -148 20
-41 70 -77 119 -86 74 -14 93 0 360 268 216 217 252 258 258 291 14 76 -20
148 -86 182 -33 17 -115 19 -144 4z"/>
<path d="M1545 1764 c-33 -17 -1110 -1087 -1156 -1148 -51 -68 -34 -179 34
-228 32 -23 109 -35 154 -24 34 9 1165 1134 1188 1182 65 137 -86 287 -220
218z"/>
<path d="M1945 986 c-16 -8 -141 -126 -277 -262 -209 -211 -248 -255 -253
-286 -13 -69 19 -143 77 -178 39 -24 117 -27 156 -6 32 18 495 482 511 513 6
12 11 44 11 71 0 54 -25 100 -72 135 -34 25 -113 32 -153 13z"/>
</g>
</svg>
