<?xml version="1.0" standalone="no"?>
<!DOCTYPE svg PUBLIC "-//W3C//DTD SVG 20010904//EN"
 "http://www.w3.org/TR/2001/REC-SVG-20010904/DTD/svg10.dtd">
<svg version="1.0" xmlns="http://www.w3.org/2000/svg"
 width="512.000000pt" height="512.000000pt" viewBox="0 0 512.000000 512.000000"
 preserveAspectRatio="xMidYMid meet">

<g transform="translate(0.000000,512.000000) scale(0.100000,-0.100000)"
fill="#000000" stroke="none">
<path d="M1443 4910 c-356 -30 -697 -181 -950 -423 -289 -276 -448 -610 -485
-1013 -19 -215 7 -433 79 -644 55 -162 127 -298 236 -445 63 -85 2087 -2120
2142 -2155 43 -26 95 -33 146 -20 40 11 135 103 1077 1043 790 788 1052 1057
1112 1136 84 111 181 288 225 411 218 610 43 1306 -432 1724 -320 282 -745
422 -1170 386 -152 -13 -271 -39 -410 -89 -136 -48 -222 -92 -346 -175 -55
-36 -101 -66 -103 -66 -2 0 -48 30 -101 66 -225 151 -476 239 -755 264 -123
11 -130 11 -265 0z m267 -370 c264 -32 487 -131 690 -310 83 -73 103 -83 165
-83 63 0 92 15 178 92 162 145 348 238 572 287 109 23 359 24 470 0 398 -85
703 -328 861 -686 77 -176 110 -356 101 -552 -12 -252 -85 -463 -233 -668 -35
-49 -381 -402 -1004 -1025 l-950 -950 -949 950 c-635 636 -968 977 -1008 1031
-64 87 -138 230 -171 329 -79 235 -81 520 -6 757 171 543 718 895 1284 828z"/>
</g>
</svg>
