<?xml version="1.0" standalone="no"?>
<!DOCTYPE svg PUBLIC "-//W3C//DTD SVG 20010904//EN"
 "http://www.w3.org/TR/2001/REC-SVG-20010904/DTD/svg10.dtd">
<svg version="1.0" xmlns="http://www.w3.org/2000/svg"
 width="512.000000pt" height="512.000000pt" viewBox="0 0 512.000000 512.000000"
 preserveAspectRatio="xMidYMid meet">

<g transform="translate(0.000000,512.000000) scale(0.100000,-0.100000)"
fill="#000000" stroke="none">
<path d="M716 5105 c-16 -9 -35 -23 -42 -33 -11 -14 -13 -467 -14 -2505 0
-2319 1 -2491 17 -2518 9 -15 29 -33 45 -40 67 -28 40 -51 961 836 477 459
871 835 877 835 6 0 396 -372 868 -826 471 -455 871 -833 889 -842 44 -21 101
-4 126 37 16 27 17 175 17 2518 l0 2489 -21 23 c-11 12 -32 26 -46 32 -15 5
-731 9 -1836 9 -1599 0 -1815 -2 -1841 -15z m3534 -2472 l0 -2278 -103 101
c-141 139 -1442 1389 -1500 1442 -39 35 -53 42 -87 42 -34 0 -48 -7 -87 -42
-57 -52 -1355 -1299 -1500 -1442 l-103 -101 0 2278 0 2277 1690 0 1690 0 0
-2277z"/>
</g>
</svg>
